<?xml version="1.0" encoding="UTF-8" standalone="no"?>
<svg width="80px" height="30px" viewBox="0 0 80 30" version="1.1" xmlns="http://www.w3.org/2000/svg" xmlns:xlink="http://www.w3.org/1999/xlink">
    <!-- Generator: sketchtool 41.2 (35397) - http://www.bohemiancoding.com/sketch -->
    <g id="Symbols" stroke="none" stroke-width="1" fill="none" fill-rule="evenodd">
        <g id="logo/traverse/H/traverse/white" fill="#FFFFFF">
            <g id="logo/H/white" transform="translate(0.000000, 8.000000)">
                <path d="M8.95652961,5.07222368 C8.95652961,4.60567763 9.33455592,4.22807895 9.80110197,4.22807895 L9.91228618,4.22807895 C10.3788322,4.22807895 10.7568586,4.60567763 10.7568586,5.07222368 L10.7568586,6.40600658 C11.9345559,4.29436184 13.4013322,3.96166447 13.9790625,3.96166447 C14.1569572,3.96166447 14.6235033,4.02794737 14.6235033,4.58386842 L14.6235033,5.20607237 C14.6235033,5.51738816 14.4460362,5.82827632 14.0684375,5.82827632 C12.8462664,5.82827632 11.5791941,6.82807895 10.8453783,8.60617105 L10.8453783,14.8957763 C10.8453783,15.3623224 10.4682072,15.7403487 10.0012336,15.7403487 L9.80110197,15.7403487 C9.33455592,15.7403487 8.95652961,15.3623224 8.95652961,14.8957763 L8.95652961,5.07222368 Z" id="Fill-4"></path>
                <path d="M19.6064803,14.4511678 C20.8064145,14.4511678 22.2069079,13.806727 23.0288158,12.8069243 L23.0288158,9.56162829 C20.9180263,9.98370066 19.695,10.3172533 18.8286184,10.8064638 C18.1392763,11.206727 17.8061513,11.8952138 17.8061513,12.7175493 C17.8061513,13.7844901 18.4505921,14.4511678 19.6064803,14.4511678 M17.8061513,9.71728618 C18.9620395,9.09508224 20.9620724,8.60629934 23.0732895,8.18422697 C23.0959539,8.00633224 23.0959539,7.8284375 23.0959539,7.65054276 C23.0959539,6.05034539 22.3180921,5.49485197 20.7846053,5.49485197 C19.695,5.49485197 18.9171382,5.82840461 18.2286513,6.60626645 C17.9177632,6.93939145 17.5619737,7.0728125 17.1617105,6.85044408 L17.0060526,6.76149671 C16.6506908,6.56136513 16.5617434,6.05034539 16.8285855,5.71679276 C17.850625,4.47238487 19.1621711,3.96136513 20.8508882,3.96136513 C23.6732566,3.96136513 24.9403289,5.18353618 24.9403289,7.71725329 L24.9403289,13.9397204 L25.0292763,14.895477 C25.0959868,15.4962993 24.9180921,15.740477 24.4297368,15.740477 L23.9405263,15.740477 C23.4517434,15.740477 23.2067105,15.3846875 23.1626645,14.9177138 L23.0959539,14.362648 C21.8737829,15.4069243 20.4950987,15.9846546 19.0950329,15.9846546 C17.0727632,15.9846546 15.8954934,14.7624836 15.8954934,12.8954441 C15.8954934,11.5402796 16.4727961,10.4506743 17.8061513,9.71728618" id="Fill-6"></path>
                <path d="M26.975898,5.02817763 C26.9536612,4.96103947 26.931852,4.89475658 26.931852,4.82804605 C26.931852,4.51673026 27.1982664,4.22807895 27.5540559,4.22807895 L28.1317862,4.22807895 C28.6205691,4.22807895 28.8647467,4.56163158 29.0204046,5.02817763 L31.5985954,13.1181118 L31.6434967,13.1181118 L34.3102072,5.02817763 C34.4658651,4.56163158 34.7100428,4.22807895 35.1988257,4.22807895 L35.7547467,4.22807895 C36.1105362,4.22807895 36.3547138,4.51673026 36.3547138,4.82804605 C36.3547138,4.89475658 36.3547138,4.96103947 36.332477,5.02817763 L32.8656678,14.94025 C32.7100099,15.4067961 32.3764572,15.7403487 31.8654375,15.7403487 L31.3544178,15.7403487 C30.843398,15.7403487 30.5098454,15.4067961 30.3541875,14.94025 L26.975898,5.02817763 Z" id="Fill-8"></path>
                <path d="M50.4657434,5.07222368 C50.4657434,4.60567763 50.8437697,4.22807895 51.3103158,4.22807895 L51.4215,4.22807895 C51.8880461,4.22807895 52.2660724,4.60567763 52.2660724,5.07222368 L52.2660724,6.40600658 C53.4437697,4.29436184 54.9105461,3.96166447 55.4882763,3.96166447 C55.6661711,3.96166447 56.1327171,4.02794737 56.1327171,4.58386842 L56.1327171,5.20607237 C56.1327171,5.51738816 55.95525,5.82827632 55.5776513,5.82827632 C54.3554803,5.82827632 53.0884079,6.82807895 52.3545921,8.60617105 L52.3545921,14.8957763 C52.3545921,15.3623224 51.9774211,15.7403487 51.510875,15.7403487 L51.3103158,15.7403487 C50.8437697,15.7403487 50.4657434,15.3623224 50.4657434,14.8957763 L50.4657434,5.07222368 Z" id="Fill-13"></path>
                <path d="M77.3365296,4.18493092 L77.0534375,4.18493092 C76.9841612,4.18493092 76.9627796,4.14430592 76.9627796,4.09427303 L76.9627796,4.0519375 C76.9627796,4.00190461 76.9841612,3.96170724 77.0534375,3.96170724 L77.8873191,3.96170724 C77.9565954,3.96170724 77.9775493,4.00190461 77.9775493,4.0519375 L77.9775493,4.09427303 C77.9775493,4.14430592 77.9565954,4.18493092 77.8873191,4.18493092 L77.6020888,4.18493092 L77.6020888,5.25358224 C77.6020888,5.32285855 77.5618914,5.3438125 77.5118586,5.3438125 L77.4271875,5.3438125 C77.3771546,5.3438125 77.3365296,5.32285855 77.3365296,5.25358224 L77.3365296,4.18493092 Z" id="Fill-24"></path>
                <path d="M1.71116776,5.78367434 L0.755411184,5.78367434 C0.333338816,5.78367434 -0.000213815791,5.56130592 -0.000213815791,5.13923355 L-0.000213815791,4.87281908 C-0.000213815791,4.44989145 0.333338816,4.22795066 0.755411184,4.22795066 L1.71116776,4.22795066 L1.71116776,1.27216118 C1.71116776,0.805615132 2.08919408,0.427588816 2.55574013,0.427588816 L2.73363487,0.427588816 C3.20060855,0.427588816 3.57863487,0.805615132 3.57863487,1.27216118 L3.57863487,4.22795066 L5.31182566,4.22795066 C5.73389803,4.22795066 6.06745066,4.44989145 6.06745066,4.87281908 L6.06745066,5.13923355 C6.06745066,5.56130592 5.73389803,5.78367434 5.31182566,5.78367434 L3.57863487,5.78367434 L3.57863487,12.8507138 C3.57863487,13.8287072 3.93356908,14.2734441 4.77856908,14.2734441 C5.02274671,14.2734441 5.26735197,14.229398 5.51152961,14.229398 C5.82284539,14.229398 6.06745066,14.2956809 6.06745066,14.5843322 L6.06745066,15.0735428 C6.06745066,15.5845625 5.84508224,15.9181151 4.31159539,15.9181151 C2.42274671,15.9181151 1.71116776,15.1851546 1.71116776,12.9400888 L1.71116776,5.78367434 Z" id="Fill-1"></path>
                <path d="M45.7240362,8.85094737 C45.7017993,6.82782237 44.657523,5.49489474 42.8345296,5.49489474 C41.0123914,5.49489474 40.0792993,7.00571711 39.8565033,8.85094737 L45.7240362,8.85094737 Z M37.9454178,9.98374342 C37.9454178,6.29499342 39.9676875,3.96140789 42.8345296,3.96140789 C45.9464046,3.96140789 47.590648,6.18338158 47.590648,9.56167105 C47.590648,9.76180263 47.3905164,10.2510132 46.9906809,10.2510132 L39.8120296,10.2510132 C39.9236414,12.8069671 40.790023,14.3849276 42.9461414,14.3849276 C44.0575559,14.3849276 44.9684112,14.0069013 45.6795625,13.0289079 C45.9464046,12.6731184 46.2128191,12.4067039 46.6575559,12.6513092 L46.9906809,12.8287763 C47.3242336,13.0066711 47.4354178,13.3397961 47.124102,13.8290066 C46.0575888,15.4292039 44.524102,16.0069342 42.8122928,16.0069342 C39.7235099,16.0069342 37.9454178,13.6733487 37.9454178,9.98374342 L37.9454178,9.98374342 Z" id="Fill-10"></path>
                <path d="M57.4331447,13.8512434 C57.4331447,13.6066382 57.5002829,13.4069342 57.7217961,13.2512763 L57.9668289,13.0733816 C58.344,12.8069671 58.6997895,12.962625 59.0333421,13.3175592 C59.7004474,14.1176579 60.4556447,14.4512105 61.5670592,14.4512105 C63.0787368,14.4512105 63.9006447,13.7841053 63.9006447,12.6953553 C63.9006447,9.73956579 57.5225197,11.5176579 57.5225197,7.161375 C57.5225197,5.25028947 59.0778158,3.96140789 61.3228816,3.96140789 C62.8559408,3.96140789 64.0118289,4.40614474 64.8786382,5.40551974 C64.9893947,5.53936842 65.0338684,5.71683553 65.0338684,5.87249342 C65.0338684,6.11709868 64.9675855,6.29499342 64.7674539,6.45065132 L64.4788026,6.67259211 C64.1230132,6.96167105 63.7894605,6.71706579 63.4785724,6.36127632 C62.8559408,5.71683553 62.1670263,5.49489474 61.2784079,5.49489474 C60.0558092,5.49489474 59.3446579,6.11709868 59.3446579,7.09509211 C59.3446579,9.71732895 65.7672566,8.05084868 65.7672566,12.6068355 C65.7672566,14.7398618 64.0336382,16.0069342 61.5225855,16.0069342 C59.7889671,16.0069342 58.5890329,15.4514408 57.6332763,14.3404539 C57.5002829,14.2070329 57.4331447,14.0291382 57.4331447,13.8512434" id="Fill-15"></path>
                <path d="M75.1069441,8.85094737 C75.0847072,6.82782237 74.0404309,5.49489474 72.2174375,5.49489474 C70.3952993,5.49489474 69.4622072,7.00571711 69.2394112,8.85094737 L75.1069441,8.85094737 Z M67.3283257,9.98374342 C67.3283257,6.29499342 69.3505954,3.96140789 72.2174375,3.96140789 C75.3293125,3.96140789 76.9735559,6.18338158 76.9735559,9.56167105 C76.9735559,9.76180263 76.7734243,10.2510132 76.3735888,10.2510132 L69.1949375,10.2510132 C69.3065493,12.8069671 70.1729309,14.3849276 72.3290493,14.3849276 C73.4404638,14.3849276 74.3513191,14.0069013 75.0624704,13.0289079 C75.3293125,12.6731184 75.5961546,12.4067039 76.0404638,12.6513092 L76.3735888,12.8287763 C76.7071414,13.0066711 76.8183257,13.3397961 76.5070099,13.8290066 C75.4404967,15.4292039 73.9070099,16.0069342 72.1952007,16.0069342 C69.1064178,16.0069342 67.3283257,13.6733487 67.3283257,9.98374342 L67.3283257,9.98374342 Z" id="Fill-18"></path>
                <path d="M78.2433651,4.05206579 C78.2433651,3.98278947 78.2839901,3.96140789 78.334023,3.96140789 L78.5226086,3.96140789 C78.5764901,3.96140789 78.6188257,3.98065132 78.6380691,4.04821711 L78.9134638,4.99542105 L78.9173125,4.99542105 L79.2021151,4.04821711 C79.2234967,3.98065132 79.2658322,3.96140789 79.3197138,3.96140789 L79.5044507,3.96140789 C79.5544836,3.96140789 79.5951086,3.98278947 79.5951086,4.05206579 L79.5951086,5.25371053 C79.5951086,5.32298684 79.5544836,5.34394079 79.5044507,5.34394079 L79.4373125,5.34394079 C79.386852,5.34394079 79.3466546,5.32298684 79.3466546,5.25371053 L79.3466546,4.29453289 L79.3428059,4.29453289 L79.0541546,5.25755921 C79.0387599,5.30759211 79.0113914,5.34394079 78.9575099,5.34394079 L78.8788257,5.34394079 C78.8249441,5.34394079 78.7980033,5.30759211 78.7826086,5.25755921 L78.4918191,4.29453289 L78.4879704,4.29453289 L78.4879704,5.25371053 C78.4879704,5.32298684 78.4473454,5.34394079 78.3973125,5.34394079 L78.334023,5.34394079 C78.2839901,5.34394079 78.2433651,5.32298684 78.2433651,5.25371053 L78.2433651,4.05206579 Z" id="Fill-21"></path>
            </g>
        </g>
    </g>
</svg>
